<svg xmlns="http://www.w3.org/2000/svg" viewBox="0 0 900 500">
  <defs>
    <radialGradient id="bg" cx="50%" cy="50%" r="70%">
      <stop offset="0%" stop-color="#0d1829"/>
      <stop offset="100%" stop-color="#060c14"/>
    </radialGradient>
    <filter id="bloom" x="-50%" y="-50%" width="200%" height="200%">
      <feGaussianBlur in="SourceGraphic" stdDeviation="3" result="blur"/>
      <feMerge><feMergeNode in="blur"/><feMergeNode in="SourceGraphic"/></feMerge>
    </filter>
    <filter id="glow-sm" x="-80%" y="-80%" width="260%" height="260%">
      <feGaussianBlur in="SourceGraphic" stdDeviation="5" result="blur"/>
      <feMerge><feMergeNode in="blur"/><feMergeNode in="blur"/><feMergeNode in="SourceGraphic"/></feMerge>
    </filter>
    <filter id="glow-lg" x="-100%" y="-100%" width="300%" height="300%">
      <feGaussianBlur in="SourceGraphic" stdDeviation="9" result="blur"/>
      <feMerge><feMergeNode in="blur"/><feMergeNode in="blur"/><feMergeNode in="SourceGraphic"/></feMerge>
    </filter>
  </defs>

  <!-- Background -->
  <rect width="900" height="500" fill="url(#bg)"/>

  <!-- Very subtle grid -->
  <pattern id="dots" width="32" height="32" patternUnits="userSpaceOnUse">
    <circle cx="16" cy="16" r="0.6" fill="#ffffff" opacity="0.04"/>
  </pattern>
  <rect width="900" height="500" fill="url(#dots)"/>

  <!-- ─── EDGES ──────────────────────────────────────────────── -->
  <!-- MOC hub to MOC hub -->
  <line x1="385" y1="228" x2="368" y2="258" stroke="#FCD34D" stroke-width="1.2" opacity="0.25"/>
  <line x1="385" y1="228" x2="425" y2="268" stroke="#FCD34D" stroke-width="1.2" opacity="0.25"/>
  <line x1="368" y1="258" x2="425" y2="268" stroke="#FCD34D" stroke-width="1" opacity="0.2"/>
  <line x1="385" y1="228" x2="418" y2="208" stroke="#FCD34D" stroke-width="1" opacity="0.2"/>
  <line x1="418" y1="208" x2="425" y2="268" stroke="#FCD34D" stroke-width="0.8" opacity="0.15"/>

  <!-- Self MOC → Self notes -->
  <line x1="385" y1="228" x2="215" y2="318" stroke="#FB923C" stroke-width="1" opacity="0.3"/>
  <line x1="385" y1="228" x2="178" y2="358" stroke="#FB923C" stroke-width="0.8" opacity="0.22"/>
  <line x1="385" y1="228" x2="258" y2="372" stroke="#FB923C" stroke-width="0.8" opacity="0.22"/>
  <line x1="385" y1="228" x2="183" y2="292" stroke="#FB923C" stroke-width="0.8" opacity="0.25"/>
  <line x1="385" y1="228" x2="248" y2="308" stroke="#FB923C" stroke-width="0.8" opacity="0.22"/>

  <!-- Learning MOC → Learning notes -->
  <line x1="368" y1="258" x2="222" y2="112" stroke="#34D399" stroke-width="1" opacity="0.3"/>
  <line x1="368" y1="258" x2="172" y2="158" stroke="#34D399" stroke-width="0.8" opacity="0.25"/>
  <line x1="368" y1="258" x2="248" y2="178" stroke="#34D399" stroke-width="0.8" opacity="0.25"/>
  <line x1="368" y1="258" x2="163" y2="115" stroke="#34D399" stroke-width="0.8" opacity="0.2"/>
  <line x1="368" y1="258" x2="268" y2="132" stroke="#34D399" stroke-width="0.8" opacity="0.2"/>
  <line x1="368" y1="258" x2="192" y2="198" stroke="#34D399" stroke-width="0.8" opacity="0.2"/>

  <!-- _people MOC → People notes -->
  <line x1="418" y1="208" x2="558" y2="128" stroke="#60A5FA" stroke-width="1.1" opacity="0.3"/>
  <line x1="418" y1="208" x2="602" y2="162" stroke="#60A5FA" stroke-width="1" opacity="0.28"/>
  <line x1="418" y1="208" x2="572" y2="178" stroke="#60A5FA" stroke-width="0.8" opacity="0.25"/>
  <line x1="418" y1="208" x2="635" y2="128" stroke="#60A5FA" stroke-width="0.8" opacity="0.22"/>
  <line x1="418" y1="208" x2="648" y2="182" stroke="#60A5FA" stroke-width="0.8" opacity="0.2"/>
  <line x1="418" y1="208" x2="588" y2="205" stroke="#60A5FA" stroke-width="0.8" opacity="0.2"/>

  <!-- Career MOC → Patterns + School -->
  <line x1="425" y1="268" x2="562" y2="322" stroke="#C084FC" stroke-width="0.8" opacity="0.25"/>
  <line x1="425" y1="268" x2="608" y2="355" stroke="#C084FC" stroke-width="0.8" opacity="0.22"/>
  <line x1="425" y1="268" x2="548" y2="365" stroke="#C084FC" stroke-width="0.8" opacity="0.22"/>
  <line x1="425" y1="268" x2="648" y2="325" stroke="#C084FC" stroke-width="0.8" opacity="0.2"/>
  <line x1="425" y1="268" x2="700" y2="218" stroke="#22D3EE" stroke-width="0.8" opacity="0.22"/>
  <line x1="425" y1="268" x2="718" y2="258" stroke="#22D3EE" stroke-width="0.8" opacity="0.18"/>

  <!-- Cross-links (the interesting ones) -->
  <!-- Susannah Pierce → Embodied Leadership -->
  <line x1="558" y1="128" x2="172" y2="158" stroke="#ffffff" stroke-width="0.7" opacity="0.1"/>
  <!-- Josh Black → AI Agents -->
  <line x1="602" y1="162" x2="222" y2="112" stroke="#ffffff" stroke-width="0.7" opacity="0.1"/>
  <!-- MBA Journey → Wharton SLF -->
  <line x1="548" y1="365" x2="700" y2="218" stroke="#22D3EE" stroke-width="0.8" opacity="0.2"/>
  <!-- Career Narrative → MBA Journey -->
  <line x1="258" y1="372" x2="548" y2="365" stroke="#C084FC" stroke-width="0.7" opacity="0.15"/>
  <!-- Decision Making → Values -->
  <line x1="248" y1="178" x2="178" y2="358" stroke="#ffffff" stroke-width="0.6" opacity="0.08"/>
  <!-- People interlinks -->
  <line x1="558" y1="128" x2="602" y2="162" stroke="#60A5FA" stroke-width="0.6" opacity="0.18"/>
  <line x1="572" y1="178" x2="602" y2="162" stroke="#60A5FA" stroke-width="0.5" opacity="0.15"/>
  <line x1="635" y1="128" x2="648" y2="182" stroke="#60A5FA" stroke-width="0.5" opacity="0.13"/>
  <!-- Self note interlinks -->
  <line x1="183" y1="292" x2="215" y2="318" stroke="#FB923C" stroke-width="0.6" opacity="0.18"/>
  <line x1="248" y1="308" x2="215" y2="318" stroke="#FB923C" stroke-width="0.5" opacity="0.15"/>
  <line x1="178" y1="358" x2="258" y2="372" stroke="#FB923C" stroke-width="0.5" opacity="0.13"/>
  <!-- Health → Real Estate -->
  <line x1="635" y1="282" x2="648" y2="325" stroke="#C084FC" stroke-width="0.5" opacity="0.15"/>

  <!-- ─── NODES ──────────────────────────────────────────────── -->

  <!-- MOC HUBS — yellow, large with glow -->
  <g filter="url(#glow-lg)">
    <circle cx="385" cy="228" r="12" fill="#FCD34D" opacity="0.95"/>
    <circle cx="368" cy="258" r="11" fill="#FCD34D" opacity="0.9"/>
    <circle cx="425" cy="268" r="11" fill="#FCD34D" opacity="0.9"/>
    <circle cx="418" cy="208" r="10" fill="#FCD34D" opacity="0.85"/>
  </g>

  <!-- PEOPLE — blue, medium with glow -->
  <g filter="url(#glow-sm)">
    <circle cx="558" cy="128" r="8" fill="#60A5FA" opacity="0.92"/>
    <circle cx="602" cy="162" r="7" fill="#60A5FA" opacity="0.88"/>
    <circle cx="572" cy="178" r="6" fill="#60A5FA" opacity="0.82"/>
    <circle cx="635" cy="128" r="6" fill="#60A5FA" opacity="0.8"/>
    <circle cx="648" cy="182" r="6" fill="#60A5FA" opacity="0.78"/>
    <circle cx="588" cy="205" r="6" fill="#60A5FA" opacity="0.75"/>
  </g>

  <!-- LEARNINGS — green, medium -->
  <g filter="url(#glow-sm)">
    <circle cx="222" cy="112" r="8" fill="#34D399" opacity="0.9"/>
    <circle cx="172" cy="158" r="8" fill="#34D399" opacity="0.88"/>
    <circle cx="248" cy="178" r="7" fill="#34D399" opacity="0.85"/>
    <circle cx="163" cy="115" r="6" fill="#34D399" opacity="0.8"/>
    <circle cx="268" cy="132" r="6" fill="#34D399" opacity="0.78"/>
    <circle cx="192" cy="198" r="6" fill="#34D399" opacity="0.75"/>
  </g>

  <!-- SELF — orange -->
  <g filter="url(#glow-sm)">
    <circle cx="215" cy="318" r="7" fill="#FB923C" opacity="0.9"/>
    <circle cx="178" cy="358" r="6" fill="#FB923C" opacity="0.85"/>
    <circle cx="258" cy="372" r="6" fill="#FB923C" opacity="0.82"/>
    <circle cx="183" cy="292" r="6" fill="#FB923C" opacity="0.82"/>
    <circle cx="248" cy="308" r="6" fill="#FB923C" opacity="0.78"/>
  </g>

  <!-- PATTERNS — purple -->
  <g filter="url(#bloom)">
    <circle cx="562" cy="322" r="6" fill="#C084FC" opacity="0.88"/>
    <circle cx="608" cy="355" r="6" fill="#C084FC" opacity="0.85"/>
    <circle cx="548" cy="365" r="6" fill="#C084FC" opacity="0.82"/>
    <circle cx="648" cy="325" r="6" fill="#C084FC" opacity="0.8"/>
    <circle cx="635" cy="282" r="6" fill="#C084FC" opacity="0.78"/>
  </g>

  <!-- SCHOOL — cyan -->
  <g filter="url(#bloom)">
    <circle cx="700" cy="218" r="7" fill="#22D3EE" opacity="0.88"/>
    <circle cx="718" cy="258" r="6" fill="#22D3EE" opacity="0.82"/>
    <circle cx="705" cy="175" r="6" fill="#22D3EE" opacity="0.8"/>
    <circle cx="738" cy="225" r="5" fill="#22D3EE" opacity="0.72"/>
    <circle cx="728" cy="188" r="5" fill="#22D3EE" opacity="0.7"/>
  </g>

  <!-- ─── LABELS ─────────────────────────────────────────────── -->
  <style>
    .lbl { font-family: system-ui, -apple-system, sans-serif; fill-opacity: 0.78; }
    .lbl-hub { font-size: 10px; font-weight: 600; fill: #FCD34D; }
    .lbl-sm  { font-size: 8.5px; fill: #cbd5e1; }
  </style>

  <!-- MOC labels -->
  <text x="385" y="244" class="lbl lbl-hub" text-anchor="middle">Self MOC</text>
  <text x="345" y="270" class="lbl lbl-hub" text-anchor="end">Learning MOC</text>
  <text x="450" y="282" class="lbl lbl-hub" text-anchor="start">Career MOC</text>
  <text x="440" y="202" class="lbl lbl-hub" text-anchor="start">_people</text>

  <!-- People labels -->
  <text x="558" y="118" class="lbl lbl-sm" text-anchor="middle">Susannah Pierce</text>
  <text x="618" y="157" class="lbl lbl-sm" text-anchor="start">Josh Black</text>
  <text x="572" y="191" class="lbl lbl-sm" text-anchor="middle">Victor Thomas</text>
  <text x="644" y="120" class="lbl lbl-sm" text-anchor="start">Marat Ospanov</text>
  <text x="658" y="193" class="lbl lbl-sm" text-anchor="start">Arjun Bhuyan</text>

  <!-- Learning labels -->
  <text x="222" y="102" class="lbl lbl-sm" text-anchor="middle">AI Agents</text>
  <text x="148" y="155" class="lbl lbl-sm" text-anchor="end">Embodied Leadership</text>
  <text x="265" y="190" class="lbl lbl-sm" text-anchor="start">Decision Making</text>
  <text x="148" y="110" class="lbl lbl-sm" text-anchor="end">Memory</text>
  <text x="278" y="128" class="lbl lbl-sm" text-anchor="start">Financial Modelling</text>

  <!-- Self labels -->
  <text x="215" y="330" class="lbl lbl-sm" text-anchor="middle">Mission Statement</text>
  <text x="155" y="365" class="lbl lbl-sm" text-anchor="end">Values</text>
  <text x="270" y="383" class="lbl lbl-sm" text-anchor="start">Career Narrative</text>
  <text x="163" y="285" class="lbl lbl-sm" text-anchor="end">Calling vs Optionality</text>
  <text x="260" y="302" class="lbl lbl-sm" text-anchor="start">Spiritual Amnesia</text>

  <!-- Pattern labels -->
  <text x="538" y="316" class="lbl lbl-sm" text-anchor="end">Short Form Content</text>
  <text x="620" y="368" class="lbl lbl-sm" text-anchor="start">Morning Routine</text>
  <text x="535" y="378" class="lbl lbl-sm" text-anchor="end">MBA Journey</text>
  <text x="660" y="330" class="lbl lbl-sm" text-anchor="start">Real Estate</text>
  <text x="658" y="278" class="lbl lbl-sm" text-anchor="start">Health</text>

  <!-- School labels -->
  <text x="760" y="215" class="lbl lbl-sm" text-anchor="start">Wharton SLF</text>
  <text x="730" y="262" class="lbl lbl-sm" text-anchor="start">Wharton Courses</text>
  <text x="720" y="170" class="lbl lbl-sm" text-anchor="start">AI Frontier</text>

  <!-- ─── LEGEND ─────────────────────────────────────────────── -->
  <rect x="18" y="18" width="130" height="115" rx="8" fill="#0d1829" fill-opacity="0.85" stroke="#1e293b" stroke-width="1"/>
  <text x="28" y="36" font-family="system-ui" font-size="8.5" font-weight="600" fill="#64748b" letter-spacing="1.5">VAULT ZONES</text>

  <circle cx="30" cy="52" r="4" fill="#FCD34D" filter="url(#bloom)"/>
  <text x="40" y="56" font-family="system-ui" font-size="8.5" fill="#94a3b8">Maps of Content</text>

  <circle cx="30" cy="68" r="4" fill="#60A5FA" filter="url(#bloom)"/>
  <text x="40" y="72" font-family="system-ui" font-size="8.5" fill="#94a3b8">People</text>

  <circle cx="30" cy="84" r="4" fill="#34D399" filter="url(#bloom)"/>
  <text x="40" y="88" font-family="system-ui" font-size="8.5" fill="#94a3b8">Learnings</text>

  <circle cx="30" cy="100" r="4" fill="#FB923C" filter="url(#bloom)"/>
  <text x="40" y="104" font-family="system-ui" font-size="8.5" fill="#94a3b8">Self</text>

  <circle cx="30" cy="116" r="4" fill="#C084FC" filter="url(#bloom)"/>
  <text x="40" y="120" font-family="system-ui" font-size="8.5" fill="#94a3b8">Patterns</text>

  <circle cx="80" cy="116" r="4" fill="#22D3EE" filter="url(#bloom)"/>
  <text x="90" y="120" font-family="system-ui" font-size="8.5" fill="#94a3b8">School</text>
</svg>
