<svg xmlns="http://www.w3.org/2000/svg" viewBox="0 0 400 240">
  <defs>
    <linearGradient id="bgd" x1="0" y1="0" x2="1" y2="1">
      <stop offset="0%" stop-color="#0b1733"/>
      <stop offset="100%" stop-color="#101c33"/>
    </linearGradient>
    <radialGradient id="glowd" cx="40%" cy="50%" r="55%">
      <stop offset="0%" stop-color="#f9a826" stop-opacity="0.14"/>
      <stop offset="100%" stop-color="#f9a826" stop-opacity="0"/>
    </radialGradient>
  </defs>
  <rect width="400" height="240" fill="url(#bgd)"/>
  <ellipse cx="160" cy="120" rx="150" ry="90" fill="url(#glowd)"/>
  <!-- absorber column with stages -->
  <rect x="120" y="42" width="44" height="136" rx="10" fill="#0b1733" stroke="#00e5ff" stroke-width="1.5"/>
  <g stroke="#00e5ff" stroke-width="1" opacity="0.55">
    <line x1="124" y1="62" x2="160" y2="62"/><line x1="124" y1="78" x2="160" y2="78"/><line x1="124" y1="94" x2="160" y2="94"/>
    <line x1="124" y1="110" x2="160" y2="110"/><line x1="124" y1="126" x2="160" y2="126"/><line x1="124" y1="142" x2="160" y2="142"/><line x1="124" y1="158" x2="160" y2="158"/>
  </g>
  <!-- feeds and products -->
  <g stroke="#8aa0c8" stroke-width="1.2" fill="none" opacity="0.8">
    <path d="M60,160 L120,160"/><path d="M60,58 L120,58"/><path d="M164,58 L230,58"/><path d="M164,160 L200,160 L200,200 L250,200"/>
  </g>
  <circle cx="60" cy="160" r="3" fill="#34d399"/><circle cx="60" cy="58" r="3" fill="#34d399"/>
  <text x="234" y="62" font-family="monospace" font-size="10" fill="#8aa0c8">H2</text>
  <!-- compressor train -->
  <g fill="none" stroke="#c084fc" stroke-width="1.4">
    <circle cx="262" cy="200" r="9"/><circle cx="296" cy="200" r="9"/><circle cx="330" cy="200" r="9"/><circle cx="364" cy="200" r="9"/>
  </g>
  <g stroke="#8aa0c8" stroke-width="1.2" opacity="0.8"><line x1="271" y1="200" x2="287" y2="200"/><line x1="305" y1="200" x2="321" y2="200"/><line x1="339" y1="200" x2="355" y2="200"/></g>
  <text x="246" y="222" font-family="monospace" font-size="10" fill="#8aa0c8">CO2 to 150 bar</text>
  <!-- the bug: one flagged stage -->
  <circle cx="142" cy="62" r="6" fill="#0b1733" stroke="#f9a826" stroke-width="1.5"/>
  <circle cx="142" cy="62" r="2" fill="#f9a826"/>
  <path d="M148,60 L190,34 L290,34" stroke="#f9a826" stroke-width="1" fill="none" opacity="0.7"/>
  <text x="196" y="30" font-family="monospace" font-size="10" fill="#f9a826" opacity="0.9">top product = distillate?</text>
  <text x="24" y="212" font-family="monospace" font-size="11" fill="#8aa0c8" opacity="0.8">15 flowsheets. 0 clicks. 1 bug.</text>
</svg>
